<svg xmlns="http://www.w3.org/2000/svg" viewBox="0 0 448 512" fill="currentColor">
  <path d="M31.4907 63.4907C0 94.9813 0 145.671 0 247.04V264.96C0 366.329 0 417.019 31.4907 448.509C62.9813 480 113.671 480 215.04 480H232.96C334.329 480 385.019 480 416.509 448.509C448 417.019 448 366.329 448 264.96V247.04C448 145.671 448 94.9813 416.509 63.4907C385.019 32 334.329 32 232.96 32H215.04C113.671 32 62.9813 32 31.4907 63.4907ZM75.6 168.267H126.747C128.427 253.76 166.133 289.973 196 297.44V168.267H244.16V242.693C273.653 239.36 304.64 205.227 315.093 168.267H363.253C359.313 187.435 351.46 205.583 340.186 221.579C328.913 237.574 314.461 251.071 297.733 261.227C316.41 270.499 332.907 283.531 346.132 299.52C359.357 315.509 369.01 333.949 374.453 353.653H321.44C316.555 337.262 306.614 322.524 292.865 311.445C279.117 300.366 262.214 293.394 244.16 291.36V353.653H238.373C136.267 353.653 78.0267 284.16 75.6 168.267Z"/>
</svg>
